<svg width="94" height="17" viewBox="0 0 94 17" fill="none" xmlns="http://www.w3.org/2000/svg">
<path fill-rule="evenodd" clip-rule="evenodd" d="M10.3227 13.5201H4.38099C3.85005 13.5201 3.41553 13.0623 3.41553 12.5026V10.8563C4.20412 10.284 5.09592 9.91557 6.0754 9.91557C7.24559 9.91557 8.33654 10.407 9.14343 11.2574C9.73854 11.8845 10.1441 12.6712 10.3227 13.5201ZM4.38099 3.45837H7.43228C6.06343 4.0074 4.82431 4.88131 3.77856 5.98328C3.65407 6.11458 3.53298 6.24915 3.41553 6.3868V4.47586C3.41553 3.9163 3.84996 3.45837 4.38099 3.45837ZM13.3522 6.33911C13.3522 6.95322 13.1698 7.52239 12.8591 7.98983C11.6521 6.78958 9.65184 6.09412 8.06171 6.09412C6.3332 6.09412 4.69295 6.73466 3.41553 7.88189V7.39799C3.81271 6.84868 4.34042 6.29468 4.84493 5.84043C6.29071 4.53891 8.08816 3.64556 10.0918 3.48455C10.5284 3.4495 10.804 3.43966 11.2331 3.53394C11.3867 3.56765 11.5311 3.61672 11.6669 3.67784C11.9791 3.81825 12.2473 3.9995 12.4801 4.22954C13.0216 4.76459 13.3522 5.48006 13.3522 6.33911ZM12.7617 8.85089C13.1314 9.34225 13.3522 9.96359 13.3522 10.6394C13.3522 12.1053 12.3134 13.3154 10.9691 13.4966C10.7731 12.4582 10.2871 11.5299 9.6036 10.8097C8.70074 9.85807 7.4532 9.26932 6.0754 9.26932C5.09755 9.26932 4.1855 9.56586 3.41553 10.0781V8.76343C3.84464 8.3055 4.45334 7.84689 4.99567 7.54308C5.91012 7.0307 6.95379 6.74037 8.06171 6.74037C9.63258 6.74037 11.7778 7.54239 12.7617 8.85089Z" fill="white" fill-opacity="0.6"/>
<path d="M18.3271 13.2292C19.0378 13.4382 19.7737 13.5426 20.5349 13.5426C21.4154 13.5426 22.1629 13.408 22.7773 13.1387C23.3918 12.8693 23.8526 12.5049 24.1598 12.0452C24.467 11.5855 24.6206 11.0771 24.6206 10.5198C24.6206 9.86973 24.4533 9.35437 24.1186 8.97362C23.7838 8.59292 23.3825 8.31426 22.9148 8.13779C22.4471 7.96142 21.8464 7.78497 21.1127 7.6085C20.4066 7.45066 19.8815 7.29049 19.5376 7.12796C19.1937 6.96538 19.0218 6.71703 19.0218 6.38272C19.0218 6.04838 19.1707 5.77906 19.4688 5.57473C19.7669 5.37044 20.2277 5.26826 20.8513 5.26826C21.5393 5.26826 22.2272 5.42094 22.9151 5.72636C23.0838 5.80123 23.2557 5.80371 23.4263 5.73353C23.5969 5.66335 23.7185 5.54023 23.7879 5.36754L23.9852 4.87614C24.1184 4.54428 23.9681 4.16504 23.6454 4.01838C23.3458 3.88229 23.0198 3.76953 22.6672 3.68026C22.0803 3.53176 21.4796 3.4574 20.8651 3.4574C19.9847 3.4574 19.2395 3.59209 18.6296 3.86141C18.0197 4.13073 17.5635 4.4952 17.2609 4.95487C16.9582 5.41458 16.8069 5.9277 16.8069 6.49416C16.8069 7.14414 16.9744 7.6642 17.309 8.05428C17.6439 8.44433 18.045 8.72753 18.5127 8.90399C18.9805 9.08046 19.5812 9.25683 20.3148 9.4333C20.7918 9.54478 21.17 9.64697 21.4498 9.73982C21.7295 9.83268 21.9587 9.95574 22.1376 10.1089C22.3164 10.2621 22.4059 10.4548 22.4059 10.6871C22.4059 11.0028 22.2545 11.2558 21.9518 11.4462C21.6492 11.6366 21.1815 11.7317 20.5487 11.7317C19.9801 11.7317 19.4115 11.6389 18.8429 11.4532C18.5264 11.3499 18.234 11.2276 17.9658 11.0868C17.7994 10.9995 17.6244 10.9868 17.4474 11.049C17.2705 11.1113 17.1411 11.2313 17.0641 11.4042L16.847 11.8917C16.7047 12.2112 16.8304 12.5859 17.1353 12.7517C17.4753 12.9365 17.8726 13.0956 18.3271 13.2292Z" fill="white" fill-opacity="0.6"/>
<path d="M37.9439 13.2292C38.6546 13.4382 39.3906 13.5426 40.1518 13.5426C41.0323 13.5426 41.7797 13.408 42.3941 13.1387C43.0086 12.8693 43.4695 12.5049 43.7767 12.0452C44.0839 11.5855 44.2375 11.0771 44.2375 10.5198C44.2375 9.86973 44.0701 9.35437 43.7354 8.97362C43.4006 8.59292 42.9994 8.31426 42.5316 8.13779C42.0639 7.96142 41.4633 7.78497 40.7295 7.6085C40.0234 7.45066 39.4984 7.29049 39.1544 7.12796C38.8105 6.96538 38.6386 6.71703 38.6386 6.38272C38.6386 6.04838 38.7876 5.77906 39.0856 5.57473C39.3837 5.37044 39.8446 5.26826 40.4682 5.26826C41.1561 5.26826 41.8441 5.42094 42.532 5.72636C42.7006 5.80123 42.8726 5.80371 43.0432 5.73353C43.2137 5.66335 43.3354 5.54023 43.4047 5.36754L43.602 4.87614C43.7352 4.54428 43.5849 4.16504 43.2622 4.01838C42.9626 3.88229 42.6366 3.76953 42.284 3.68026C41.6971 3.53176 41.0964 3.4574 40.4819 3.4574C39.6016 3.4574 38.8563 3.59209 38.2465 3.86141C37.6366 4.13073 37.1804 4.4952 36.8777 4.95487C36.5751 5.41458 36.4238 5.9277 36.4238 6.49416C36.4238 7.14414 36.5912 7.6642 36.9259 8.05428C37.2607 8.44433 37.6618 8.72753 38.1295 8.90399C38.5973 9.08046 39.198 9.25683 39.9316 9.4333C40.4086 9.54478 40.7869 9.64697 41.0666 9.73982C41.3463 9.83268 41.5756 9.95574 41.7544 10.1089C41.9333 10.2621 42.0227 10.4548 42.0227 10.6871C42.0227 11.0028 41.8714 11.2558 41.5687 11.4462C41.2661 11.6366 40.7984 11.7317 40.1655 11.7317C39.5969 11.7317 39.0283 11.6389 38.4598 11.4532C38.1432 11.3499 37.8508 11.2276 37.5826 11.0868C37.4162 10.9995 37.2412 10.9868 37.0643 11.049C36.8873 11.1113 36.7579 11.2313 36.6809 11.4042L36.4639 11.8917C36.3216 12.2112 36.4472 12.5859 36.7522 12.7517C37.0921 12.9365 37.4894 13.0956 37.9439 13.2292Z" fill="white" fill-opacity="0.6"/>
<path fill-rule="evenodd" clip-rule="evenodd" d="M73.8809 12.888C74.6834 13.3244 75.5844 13.5426 76.584 13.5426C77.5837 13.5426 78.4824 13.3244 79.2803 12.888C80.0781 12.4515 80.7064 11.8502 81.165 11.0841C81.6235 10.318 81.8528 9.45662 81.8528 8.50002C81.8528 7.54352 81.6235 6.68217 81.165 5.91607C80.7064 5.14988 80.0781 4.54859 79.2803 4.11215C78.4824 3.6757 77.5837 3.4574 76.584 3.4574C75.5844 3.4574 74.6834 3.6757 73.8809 4.11215C73.0785 4.54859 72.4502 5.14988 71.9962 5.91607C71.5422 6.68217 71.3153 7.54352 71.3153 8.50002C71.3153 9.45662 71.5422 10.318 71.9962 11.0841C72.4502 11.8502 73.0785 12.4515 73.8809 12.888ZM78.1248 11.2233C77.6662 11.488 77.1526 11.6203 76.584 11.6203C76.0154 11.6203 75.5018 11.488 75.0433 11.2233C74.5847 10.9587 74.2248 10.5895 73.9634 10.1159C73.7021 9.64231 73.5714 9.10369 73.5714 8.50002C73.5714 7.89645 73.7021 7.3578 73.9634 6.8842C74.2248 6.41054 74.5847 6.04143 75.0433 5.7768C75.5018 5.51213 76.0154 5.37974 76.584 5.37974C77.1526 5.37974 77.6662 5.51213 78.1248 5.7768C78.5832 6.04143 78.9433 6.41054 79.2047 6.8842C79.466 7.3578 79.5967 7.89645 79.5967 8.50002C79.5967 9.10369 79.466 9.64231 79.2047 10.1159C78.9433 10.5895 78.5832 10.9587 78.1248 11.2233Z" fill="white" fill-opacity="0.6"/>
<path d="M86.929 9.99053L89.0578 13.0899C89.1845 13.2744 89.3754 13.3755 89.5973 13.3755H90.5422C90.7952 13.3755 91.012 13.2412 91.1272 13.0132C91.2425 12.7852 91.2233 12.5285 91.0753 12.3208L88.2358 8.33287L90.8403 4.6796C90.9885 4.47181 91.0078 4.21515 90.8926 3.98708C90.7773 3.75892 90.5605 3.62458 90.3075 3.62458H89.5284C89.3065 3.62458 89.1157 3.72548 88.9889 3.9099L87.0115 6.78662L84.9932 3.90503C84.866 3.72351 84.6769 3.62458 84.4571 3.62458H83.5434C83.2909 3.62458 83.0744 3.75841 82.959 3.98579C82.8435 4.21312 82.862 4.46923 83.0089 4.6772L85.6496 8.41647L82.8461 12.3185C82.6969 12.5261 82.6769 12.7831 82.7919 13.0119C82.9069 13.2407 83.124 13.3755 83.3775 13.3755H84.2984C84.5223 13.3755 84.7148 13.2726 84.8411 13.0854L86.929 9.99053Z" fill="white" fill-opacity="0.6"/>
<path fill-rule="evenodd" clip-rule="evenodd" d="M68.4676 8.30503C69.0179 8.4815 69.4489 8.77626 69.7608 9.18952C70.0725 9.60284 70.2285 10.1112 70.2285 10.7149C70.2285 11.5693 69.9007 12.2262 69.2449 12.6859C68.5892 13.1456 67.633 13.3755 66.3767 13.3755H62.054C61.692 13.3755 61.3968 13.0766 61.3968 12.71V4.29011C61.3968 3.92352 61.692 3.62458 62.054 3.62458H66.1015C67.2754 3.62458 68.1764 3.85205 68.8047 4.30708C69.4329 4.7622 69.747 5.3797 69.747 6.15983C69.747 6.63344 69.6347 7.05595 69.41 7.42737C69.1853 7.79892 68.8711 8.09136 68.4676 8.30503ZM66.2115 11.6761C66.7986 11.6761 67.2411 11.5785 67.539 11.3835C67.8371 11.1885 67.9861 10.8867 67.9861 10.4781C67.9861 9.67011 67.3946 9.26618 66.2115 9.26618H63.6115V11.6761H66.2115ZM63.6115 5.324V7.62245H65.8264C66.3767 7.62245 66.7939 7.5249 67.0783 7.32995C67.3625 7.13491 67.5047 6.84697 67.5047 6.46622C67.5047 6.08556 67.3625 5.79991 67.0783 5.60956C66.7939 5.41916 66.3767 5.324 65.8264 5.324H63.6115Z" fill="white" fill-opacity="0.6"/>
<path d="M58.4511 3.62458H57.537C57.175 3.62458 56.8798 3.92351 56.8798 4.29005V12.71C56.8798 13.0765 57.175 13.3754 57.537 13.3754H58.4511C58.8131 13.3754 59.1083 13.0765 59.1083 12.71V4.29005C59.1083 3.92351 58.8131 3.62458 58.4511 3.62458Z" fill="white" fill-opacity="0.6"/>
<path d="M54.5962 4.29005V12.71C54.5962 13.0765 54.3009 13.3754 53.939 13.3754H53.0248C52.6628 13.3754 52.3676 13.0765 52.3676 12.71V9.37762H47.993V12.71C47.993 13.0765 47.6978 13.3754 47.3357 13.3754H46.4217C46.0597 13.3754 45.7645 13.0765 45.7645 12.71V4.29005C45.7645 3.92351 46.0597 3.62458 46.4217 3.62458H47.3357C47.6978 3.62458 47.993 3.92351 47.993 4.29005V7.46922H52.3676V4.29005C52.3676 3.92351 52.6628 3.62458 53.0248 3.62458H53.939C54.3009 3.62458 54.5962 3.92351 54.5962 4.29005Z" fill="white" fill-opacity="0.6"/>
<path d="M30.426 13.5426C29.0503 13.5426 27.9795 13.1572 27.2138 12.3865C26.448 11.6157 26.0651 10.5152 26.0651 9.08503V4.29005C26.0651 3.92351 26.3603 3.62458 26.7223 3.62458H27.6365C27.9984 3.62458 28.2937 3.92351 28.2937 4.29005V9.00151C28.2937 10.7474 29.009 11.6202 30.4397 11.6202C31.1367 11.6202 31.6686 11.409 32.0354 10.9865C32.4023 10.5639 32.5858 9.90223 32.5858 9.00151V4.29005C32.5858 3.92351 32.881 3.62458 33.243 3.62458H34.1295C34.4914 3.62458 34.7867 3.92351 34.7867 4.29005V9.08503C34.7867 10.5152 34.4039 11.6157 33.6381 12.3865C32.8723 13.1572 31.8016 13.5426 30.426 13.5426Z" fill="white" fill-opacity="0.6"/>
</svg>
