<svg width="14" height="17" viewBox="0 0 14 17" fill="none" xmlns="http://www.w3.org/2000/svg">
<path d="M11.4824 14.458L11.9541 4.51855H12.7744C13.0547 4.51855 13.2803 4.2793 13.2803 3.99902C13.2803 3.71875 13.0547 3.48633 12.7744 3.48633H9.65039V2.46094C9.65039 1.47656 8.9873 0.847656 7.93457 0.847656H5.37793C4.3252 0.847656 3.66895 1.47656 3.66895 2.46094V3.48633H0.551758C0.27832 3.48633 0.0458984 3.72559 0.0458984 3.99902C0.0458984 4.2793 0.27832 4.51855 0.551758 4.51855H1.37891L1.85059 14.4648C1.89844 15.4424 2.54102 16.0713 3.53223 16.0713H9.80078C10.7783 16.0713 11.4346 15.4355 11.4824 14.458ZM4.7627 2.5293C4.7627 2.13965 5.04297 1.86621 5.45996 1.86621H7.85938C8.27637 1.86621 8.56348 2.13965 8.56348 2.5293V3.48633H4.7627V2.5293ZM3.62793 15.0391C3.23828 15.0391 2.94434 14.7451 2.92383 14.3418L2.44531 4.51855H10.8604L10.4092 14.3418C10.3887 14.752 10.1016 15.0391 9.69141 15.0391H3.62793ZM8.69336 13.8428C8.91895 13.8428 9.08301 13.6582 9.08984 13.3984L9.29492 6.22754C9.30176 5.97461 9.13086 5.7832 8.89844 5.7832C8.68652 5.7832 8.50879 5.98145 8.50195 6.22754L8.29688 13.3916C8.29004 13.6445 8.46094 13.8428 8.69336 13.8428ZM4.63965 13.8428C4.87207 13.8428 5.04297 13.6445 5.03613 13.3916L4.82422 6.22754C4.81738 5.98145 4.63965 5.7832 4.42773 5.7832C4.19531 5.7832 4.02441 5.97461 4.03125 6.22754L4.23633 13.3984C4.24316 13.6582 4.40723 13.8428 4.63965 13.8428ZM6.66309 13.8428C6.88867 13.8428 7.08008 13.6445 7.08008 13.3984V6.22754C7.08008 5.98145 6.88867 5.7832 6.66309 5.7832C6.44434 5.7832 6.25293 5.98145 6.25293 6.22754V13.3984C6.25293 13.6445 6.44434 13.8428 6.66309 13.8428Z" fill="#A3A3A3"/>
</svg>
