<svg width="24" height="24" viewBox="0 0 24 24" fill="none" xmlns="http://www.w3.org/2000/svg">
<path fill-rule="evenodd" clip-rule="evenodd" d="M12 0C5.37258 0 0 5.37258 0 12C0 18.6274 5.37258 24 12 24C18.6274 24 24 18.6274 24 12C24 5.37258 18.6274 0 12 0ZM9.36166 5.63869C10.0443 5.60762 10.2625 5.60002 12.0006 5.60002H11.9986C13.7373 5.60002 13.9546 5.60762 14.6373 5.63869C15.3187 5.66989 15.784 5.77776 16.192 5.93603C16.6133 6.09936 16.9693 6.31803 17.3253 6.67404C17.6813 7.02977 17.9 7.38684 18.064 7.80778C18.2214 8.21472 18.3294 8.67979 18.3614 9.36113C18.392 10.0438 18.4 10.2619 18.4 12.0001C18.4 13.7382 18.392 13.9558 18.3614 14.6385C18.3294 15.3196 18.2214 15.7848 18.064 16.1919C17.9 16.6127 17.6813 16.9697 17.3253 17.3255C16.9697 17.6815 16.6132 17.9007 16.1924 18.0642C15.7852 18.2224 15.3196 18.3303 14.6383 18.3615C13.9556 18.3926 13.7381 18.4002 11.9998 18.4002C10.2618 18.4002 10.0438 18.3926 9.36113 18.3615C8.67992 18.3303 8.21472 18.2224 7.80751 18.0642C7.38684 17.9007 7.02977 17.6815 6.67417 17.3255C6.3183 16.9697 6.09963 16.6127 5.93603 16.1917C5.77789 15.7848 5.67002 15.3197 5.63869 14.6384C5.60776 13.9557 5.60002 13.7382 5.60002 12.0001C5.60002 10.2619 5.60802 10.0437 5.63856 9.361C5.66922 8.67992 5.77723 8.21472 5.93589 7.80765C6.0999 7.38684 6.31856 7.02977 6.67457 6.67404C7.03031 6.31816 7.38738 6.0995 7.80831 5.93603C8.21525 5.77776 8.68032 5.66989 9.36166 5.63869Z" fill="white" fill-opacity="0.6"/>
<path fill-rule="evenodd" clip-rule="evenodd" d="M11.4265 6.75343C11.538 6.75326 11.6579 6.75331 11.7873 6.75337L12.0006 6.75343C13.7094 6.75343 13.912 6.75956 14.5868 6.79023C15.2108 6.81877 15.5495 6.92303 15.7751 7.01063C16.0737 7.12663 16.2867 7.2653 16.5105 7.48931C16.7345 7.71331 16.8732 7.92664 16.9895 8.22531C17.0771 8.45065 17.1815 8.78932 17.2099 9.41333C17.2405 10.088 17.2472 10.2907 17.2472 11.9987C17.2472 13.7067 17.2405 13.9094 17.2099 14.584C17.1813 15.2081 17.0771 15.5467 16.9895 15.7721C16.8735 16.0707 16.7345 16.2834 16.5105 16.5073C16.2865 16.7313 16.0739 16.8699 15.7751 16.9859C15.5497 17.0739 15.2108 17.1779 14.5868 17.2065C13.9121 17.2371 13.7094 17.2438 12.0006 17.2438C10.2917 17.2438 10.0891 17.2371 9.41447 17.2065C8.79046 17.1777 8.45179 17.0734 8.22605 16.9858C7.92739 16.8698 7.71405 16.7311 7.49005 16.5071C7.26604 16.2831 7.12738 16.0703 7.01111 15.7715C6.92351 15.5462 6.81911 15.2075 6.79071 14.5835C6.76004 13.9088 6.75391 13.7062 6.75391 11.9971C6.75391 10.288 6.76004 10.0864 6.79071 9.41173C6.81924 8.78772 6.92351 8.44905 7.01111 8.22345C7.12711 7.92478 7.26604 7.71144 7.49005 7.48744C7.71405 7.26344 7.92739 7.12477 8.22605 7.0085C8.45166 6.9205 8.79046 6.8165 9.41447 6.78783C10.0049 6.76116 10.2337 6.75316 11.4265 6.75183V6.75343ZM15.4169 7.81616C14.9929 7.81616 14.6489 8.15976 14.6489 8.5839C14.6489 9.0079 14.9929 9.3519 15.4169 9.3519C15.8409 9.3519 16.1849 9.0079 16.1849 8.5839C16.1849 8.15989 15.8409 7.81589 15.4169 7.81589V7.81616ZM8.71393 12.0001C8.71393 10.1851 10.1855 8.71347 12.0005 8.7134C13.8156 8.7134 15.2868 10.185 15.2868 12.0001C15.2868 13.8152 13.8157 15.2861 12.0006 15.2861C10.1855 15.2861 8.71393 13.8152 8.71393 12.0001Z" fill="white" fill-opacity="0.6"/>
<path d="M12.0005 9.8667C13.1787 9.8667 14.1339 10.8218 14.1339 12.0001C14.1339 13.1782 13.1787 14.1334 12.0005 14.1334C10.8223 14.1334 9.86719 13.1782 9.86719 12.0001C9.86719 10.8218 10.8223 9.8667 12.0005 9.8667Z" fill="white" fill-opacity="0.6"/>
</svg>
