<svg width="24" height="24" viewBox="0 0 24 24" fill="none" xmlns="http://www.w3.org/2000/svg">
<path fill-rule="evenodd" clip-rule="evenodd" d="M0 12C0 5.37258 5.37258 0 12 0C18.6274 0 24 5.37258 24 12C24 18.6274 18.6274 24 12 24C5.37258 24 0 18.6274 0 12ZM11.9919 12.1927C13.7614 12.1927 15.1998 10.804 15.1998 9.09679C15.1998 7.38905 13.7614 6 11.9919 6C10.2227 6 8.7839 7.38905 8.7839 9.09679C8.7839 10.804 10.2227 12.1927 11.9919 12.1927ZM15.1608 13.9755C14.5807 14.3272 13.951 14.5766 13.298 14.7202L15.0913 16.4514C15.4587 16.8053 15.4587 17.3801 15.0913 17.7343C14.7243 18.0886 14.1295 18.0886 13.7628 17.7343L11.9996 16.0331L10.238 17.7343C10.0543 17.9113 9.81359 17.9998 9.5729 17.9998C9.33258 17.9998 9.09227 17.9113 8.90858 17.7343C8.54158 17.3801 8.54158 16.8057 8.90819 16.4514L10.7017 14.7202C10.0487 14.5766 9.41896 14.3268 8.8389 13.9755C8.39993 13.7083 8.26806 13.1486 8.54465 12.7245C8.82048 12.2998 9.40053 12.172 9.84027 12.4392C11.1536 13.2366 12.8454 13.2368 14.1594 12.4392C14.5991 12.172 15.179 12.2998 15.4554 12.7245C15.732 13.1482 15.5998 13.7083 15.1608 13.9755Z" fill="white" fill-opacity="0.6"/>
<path d="M11.9918 7.81482C12.7243 7.81482 13.3201 8.38975 13.3201 9.09678C13.3201 9.80326 12.7243 10.3786 11.9918 10.3786C11.2599 10.3786 10.6636 9.80326 10.6636 9.09678C10.6636 8.38975 11.2599 7.81482 11.9918 7.81482Z" fill="white" fill-opacity="0.6"/>
</svg>
