<svg width="11" height="12" viewBox="0 0 11 12" fill="none" xmlns="http://www.w3.org/2000/svg">
<path d="M5.5 11.9331C6.0459 11.9331 6.50293 11.457 6.50293 10.9492V7.42627H9.9624C10.4893 7.42627 10.9463 6.96924 10.9463 6.42334C10.9463 5.87744 10.4893 5.42041 9.9624 5.42041H6.50293V1.89746C6.50293 1.37061 6.0459 0.919922 5.5 0.919922C4.9541 0.919922 4.49707 1.37061 4.49707 1.89746V5.42041H1.03125C0.529785 5.42041 0.0473633 5.87744 0.0473633 6.42334C0.0473633 6.96924 0.529785 7.42627 1.03125 7.42627H4.49707V10.9492C4.49707 11.457 4.9541 11.9331 5.5 11.9331Z" fill="#1A1A1A"/>
</svg>
