<svg width="24" height="24" viewBox="0 0 24 24" fill="none" xmlns="http://www.w3.org/2000/svg">
<path fill-rule="evenodd" clip-rule="evenodd" d="M12 0C5.37258 0 0 5.37258 0 12C0 18.6274 5.37258 24 12 24C18.6274 24 24 18.6274 24 12C24 5.37258 18.6274 0 12 0ZM12.9771 15.788C12.8588 15.9128 12.6278 15.938 12.6278 15.938H11.8627C11.8627 15.938 10.1749 16.0375 8.68803 14.5184C7.06657 12.8611 5.63479 9.57272 5.63479 9.57272C5.63479 9.57272 5.55216 9.35702 5.64168 9.25317C5.74247 9.13579 6.01731 9.12842 6.01731 9.12842L7.846 9.11674C7.846 9.11674 8.01816 9.14439 8.14149 9.2335C8.24354 9.30725 8.30051 9.44428 8.30051 9.44428C8.30051 9.44428 8.596 10.178 8.98728 10.8417C9.75169 12.1378 10.1073 12.4211 10.3665 12.2822C10.7446 12.08 10.6313 10.4503 10.6313 10.4503C10.6313 10.4503 10.6382 9.85909 10.441 9.59546C10.2882 9.39143 10.0002 9.33183 9.87314 9.31523C9.76984 9.30171 9.93888 9.06697 10.158 8.96188C10.4873 8.80395 11.0683 8.79473 11.755 8.80149C12.2903 8.80702 12.4443 8.83959 12.6534 8.88937C13.1387 9.00432 13.1236 9.37272 13.0909 10.1678C13.0811 10.4056 13.0697 10.6815 13.0697 11.0003C13.0697 11.0719 13.0676 11.1482 13.0654 11.2268C13.0541 11.6341 13.0411 12.1006 13.3145 12.2742C13.4548 12.3627 13.7972 12.2871 14.6543 10.8589C15.0606 10.1817 15.3648 9.3859 15.3648 9.3859C15.3648 9.3859 15.4318 9.24395 15.5351 9.18311C15.6409 9.12104 15.7837 9.14009 15.7837 9.14009L17.7081 9.12842C17.7081 9.12842 18.2866 9.06021 18.3799 9.31708C18.4782 9.58563 18.1639 10.2137 17.3776 11.2424C16.6317 12.2185 16.2687 12.5779 16.302 12.8957C16.3264 13.1279 16.5623 13.338 17.0151 13.7503C17.9603 14.6117 18.2137 15.0649 18.2745 15.1738C18.2796 15.1828 18.2833 15.1895 18.286 15.1938C18.7098 15.8839 17.8158 15.938 17.8158 15.938L16.1061 15.9613C16.1061 15.9613 15.7392 16.0326 15.2559 15.7069C15.0027 15.5365 14.7553 15.258 14.5197 14.9929C14.1598 14.5879 13.8274 14.2137 13.5437 14.3021C13.0672 14.4508 13.0816 15.458 13.0816 15.458C13.0816 15.458 13.0854 15.6737 12.9771 15.788Z" fill="white" fill-opacity="0.6"/>
</svg>
