<svg width="94" height="17" fill="none" xmlns="http://www.w3.org/2000/svg"><path fill-rule="evenodd" clip-rule="evenodd" d="M10.323 13.52H4.38c-.531 0-.965-.458-.965-1.017v-1.647c.788-.572 1.68-.94 2.66-.94 1.17 0 2.26.491 3.067 1.341a4.685 4.685 0 011.18 2.263zM4.38 3.458h3.051c-1.369.55-2.608 1.423-3.653 2.525a10.36 10.36 0 00-.363.404V4.476c0-.56.434-1.018.965-1.018zm8.971 2.881a2.97 2.97 0 01-.493 1.65c-1.207-1.2-3.207-1.895-4.797-1.895-1.729 0-3.369.64-4.646 1.788v-.484c.397-.55.924-1.103 1.429-1.558 1.446-1.3 3.244-2.194 5.248-2.355.436-.035.712-.045 1.141.049.154.034.298.083.434.144.312.14.58.321.813.552.542.535.872 1.25.872 2.11zm-.59 2.512c.37.491.59 1.113.59 1.788 0 1.466-1.039 2.676-2.383 2.858a5.34 5.34 0 00-1.365-2.687c-.903-.952-2.15-1.54-3.529-1.54-.977 0-1.89.296-2.66.808V8.763a6.986 6.986 0 011.58-1.22 6.248 6.248 0 013.067-.803c1.57 0 3.716.802 4.7 2.11z" fill="#fff" fill-opacity=".6"/><path d="M18.327 13.23c.71.208 1.447.313 2.208.313.88 0 1.628-.135 2.242-.404.615-.27 1.076-.634 1.383-1.094.307-.46.46-.968.46-1.525 0-.65-.167-1.166-.501-1.546a2.985 2.985 0 00-1.204-.836 15.558 15.558 0 00-1.802-.53c-.706-.157-1.232-.318-1.575-.48-.344-.163-.516-.411-.516-.745 0-.335.149-.604.447-.808.298-.205.759-.307 1.382-.307a5.05 5.05 0 012.064.458c.169.075.34.078.511.008a.64.64 0 00.362-.366l.197-.492a.669.669 0 00-.34-.858 5.808 5.808 0 00-.978-.338 7.318 7.318 0 00-1.802-.223c-.88 0-1.625.135-2.235.404-.61.27-1.066.634-1.37 1.094-.302.46-.453.973-.453 1.54 0 .65.167 1.17.502 1.56.335.39.736.673 1.204.849a15.55 15.55 0 001.802.53c.477.11.855.213 1.135.306s.509.216.688.369a.73.73 0 01.268.578c0 .316-.151.569-.454.76-.303.19-.77.285-1.403.285a5.467 5.467 0 01-1.706-.279 5.666 5.666 0 01-.877-.366.629.629 0 00-.519-.038.639.639 0 00-.383.355l-.217.488a.669.669 0 00.288.86c.34.184.738.344 1.192.477zm19.617 0c.71.208 1.447.313 2.208.313.88 0 1.628-.135 2.242-.404.615-.27 1.075-.634 1.383-1.094.307-.46.46-.968.46-1.525 0-.65-.167-1.166-.502-1.546a2.984 2.984 0 00-1.203-.836 15.552 15.552 0 00-1.802-.53c-.707-.157-1.232-.318-1.576-.48-.344-.163-.515-.411-.515-.745 0-.335.149-.604.447-.808.298-.205.759-.307 1.382-.307a5.05 5.05 0 012.064.458c.169.075.34.078.511.008a.64.64 0 00.362-.366l.197-.492a.669.669 0 00-.34-.858 5.808 5.808 0 00-.978-.338 7.318 7.318 0 00-1.802-.223c-.88 0-1.626.135-2.236.404-.61.27-1.066.634-1.368 1.094-.303.46-.454.973-.454 1.54 0 .65.167 1.17.502 1.56.335.39.736.673 1.203.849a15.55 15.55 0 001.803.53c.477.11.855.213 1.135.306s.509.216.687.369a.73.73 0 01.269.578c0 .316-.152.569-.454.76-.303.19-.77.285-1.404.285a5.466 5.466 0 01-1.705-.279 5.663 5.663 0 01-.877-.366.629.629 0 00-.519-.038.639.639 0 00-.383.355l-.217.488a.669.669 0 00.288.86c.34.184.737.344 1.192.477z" fill="#fff" fill-opacity=".6"/><path fill-rule="evenodd" clip-rule="evenodd" d="M73.88 12.888c.803.436 1.704.655 2.704.655 1 0 1.898-.219 2.696-.655a4.888 4.888 0 001.885-1.804c.459-.766.688-1.627.688-2.584 0-.956-.23-1.818-.688-2.584a4.887 4.887 0 00-1.885-1.804c-.798-.436-1.696-.655-2.696-.655-1 0-1.9.219-2.703.655a4.825 4.825 0 00-1.885 1.804c-.454.766-.68 1.628-.68 2.584 0 .957.226 1.818.68 2.584a4.826 4.826 0 001.885 1.804zm4.245-1.665a3.026 3.026 0 01-1.541.397 3.025 3.025 0 01-1.54-.397 2.832 2.832 0 01-1.08-1.107c-.262-.474-.393-1.012-.393-1.616 0-.604.131-1.142.392-1.616a2.831 2.831 0 011.08-1.107 3.026 3.026 0 011.541-.397c.569 0 1.082.132 1.54.397.46.264.82.634 1.08 1.107.262.474.393 1.012.393 1.616 0 .604-.131 1.142-.392 1.616a2.833 2.833 0 01-1.08 1.107z" fill="#fff" fill-opacity=".6"/><path d="M86.929 9.99l2.129 3.1a.637.637 0 00.54.286h.944c.253 0 .47-.135.585-.363a.658.658 0 00-.052-.692l-2.84-3.988L90.84 4.68a.658.658 0 00.053-.693.643.643 0 00-.585-.362h-.78c-.222 0-.412.1-.54.285l-1.977 2.877-2.018-2.882a.637.637 0 00-.536-.28h-.914a.642.642 0 00-.584.36.658.658 0 00.05.692l2.64 3.74-2.803 3.902a.658.658 0 00-.054.693.642.642 0 00.585.364h.921a.638.638 0 00.543-.29L86.93 9.99z" fill="#fff" fill-opacity=".6"/><path fill-rule="evenodd" clip-rule="evenodd" d="M68.468 8.305c.55.177.98.471 1.293.885.312.413.468.921.468 1.525 0 .854-.328 1.511-.984 1.97-.656.46-1.612.69-2.868.69h-4.323a.663.663 0 01-.657-.665V4.29c0-.366.295-.665.657-.665h4.047c1.174 0 2.075.227 2.704.682.628.455.942 1.073.942 1.853a2.4 2.4 0 01-.337 1.267 2.373 2.373 0 01-.942.878zm-2.257 3.371c.588 0 1.03-.098 1.328-.293.298-.194.447-.496.447-.905 0-.808-.591-1.212-1.775-1.212h-2.6v2.41h2.6zm-2.6-6.352v2.298h2.215c.55 0 .968-.097 1.252-.292.284-.195.427-.483.427-.864 0-.38-.142-.666-.427-.856-.284-.19-.701-.286-1.252-.286h-2.214z" fill="#fff" fill-opacity=".6"/><path d="M58.451 3.625h-.914a.663.663 0 00-.657.665v8.42c0 .366.295.665.657.665h.914a.663.663 0 00.657-.665V4.29a.663.663 0 00-.657-.665zm-3.855.665v8.42a.663.663 0 01-.657.665h-.914a.663.663 0 01-.657-.665V9.378h-4.375v3.332a.663.663 0 01-.657.665h-.914a.663.663 0 01-.657-.665V4.29c0-.366.295-.665.657-.665h.914c.362 0 .657.299.657.665v3.18h4.375V4.29c0-.366.295-.665.657-.665h.914c.362 0 .657.299.657.665zm-24.17 9.253c-1.376 0-2.446-.386-3.212-1.156-.766-.771-1.149-1.872-1.149-3.302V4.29c0-.366.295-.665.657-.665h.915c.361 0 .657.299.657.665v4.712c0 1.745.715 2.618 2.146 2.618.697 0 1.229-.211 1.595-.633.367-.423.55-1.085.55-1.985V4.29c0-.366.296-.665.658-.665h.886c.362 0 .658.299.658.665v4.795c0 1.43-.383 2.53-1.149 3.301-.766.771-1.836 1.157-3.212 1.157z" fill="#fff" fill-opacity=".6"/></svg>